<svg width="510" height="125" viewBox="0 0 510 125" fill="none" xmlns="http://www.w3.org/2000/svg">
<g clip-path="url(#clip0_5_1060)">
<path d="M103.35 70.13H90.57V12.77H0V0H103.35V70.13Z" fill="#FB6E00"/>
<path d="M51.92 125C38.09 125 25.12 119.23 15.39 108.76C5.77999 98.42 0.48999 84.7 0.48999 70.13V52.21H36.83V64.98H13.27V70.13C13.27 93.34 30.61 112.22 51.92 112.22C73.23 112.22 90.57 93.34 90.57 70.13H103.34C103.34 84.7 98.05 98.42 88.44 108.76C78.71 119.23 65.74 125 51.91 125H51.92Z" fill="#FB6E00"/>
<path d="M52.12 104.31C35.64 104.31 22.22 90.0901 22.22 72.6201H34.99C34.99 83.0501 42.67 91.5401 52.11 91.5401C61.55 91.5401 69.23 83.0501 69.23 72.6201H82C82 90.1001 68.59 104.31 52.1 104.31H52.12Z" fill="#FB6E00"/>
<path d="M30.74 41.8701C35.4454 41.8701 39.26 38.0555 39.26 33.3501C39.26 28.6446 35.4454 24.8301 30.74 24.8301C26.0345 24.8301 22.22 28.6446 22.22 33.3501C22.22 38.0555 26.0345 41.8701 30.74 41.8701Z" fill="#FB6E00"/>
<path d="M78.6033 24.8308L61.5676 35.667L64.9972 41.0587L82.0328 30.2225L78.6033 24.8308Z" fill="#FB6E00"/>
<g transform="translate(0, 20)">
<path d="M143.46 69.4599C137.82 69.4599 133.37 67.9799 130.13 65.0299C126.88 62.0699 125.26 57.8599 125.26 52.3899V49.2199H136.39V52.5799C136.39 55.1799 137.03 57.1499 138.31 58.4899C139.59 59.8299 141.31 60.4999 143.47 60.4999C145.63 60.4999 147.35 59.8299 148.61 58.4899C149.87 57.1499 150.51 55.1699 150.51 52.5399V14.3799H161.53V52.3399C161.53 57.8399 159.92 62.0599 156.71 65.0199C153.5 67.9699 149.09 69.4499 143.47 69.4499H143.46Z" fill="black"/>
<path d="M171.37 68.7299V14.3799H207.74V23.6099H182.5V36.7399H205.85V45.8199H182.5V59.4999H207.82V68.7299H171.38H171.37Z" fill="black"/>
<path d="M232.51 69.4599C226.87 69.4599 222.42 67.9799 219.18 65.0299C215.93 62.0699 214.31 57.8599 214.31 52.3899V49.2199H225.44V52.5799C225.44 55.1799 226.08 57.1499 227.36 58.4899C228.64 59.8299 230.36 60.4999 232.52 60.4999C234.68 60.4999 236.4 59.8299 237.66 58.4899C238.92 57.1499 239.56 55.1699 239.56 52.5399V14.3799H250.58V52.3399C250.58 57.8399 248.97 62.0599 245.76 65.0199C242.55 67.9699 238.14 69.4499 232.52 69.4499H232.51Z" fill="black"/>
<path d="M255.81 68.7299L274.38 14.3799H288.97L308.01 68.7299H295.64L286.92 42.4999C285.87 39.1199 284.81 35.4199 283.73 31.3899C282.65 27.3699 281.51 22.9699 280.32 18.1999H282.76C281.59 22.9899 280.5 27.4099 279.5 31.4599C278.49 35.5099 277.49 39.1899 276.49 42.4999L268.1 68.7299H255.81ZM267.41 56.1099V47.3899H296.41V56.1099H267.41Z" fill="black"/>
<path d="M314.73 68.7299V14.3799H325.86V29.2299L325.68 43.0899L325.86 48.5299V68.7399H314.73V68.7299ZM322.93 56.4399V46.2999C324.05 44.2799 325.14 42.4199 326.21 40.7199C327.28 39.0199 328.46 37.3099 329.75 35.5999C331.04 33.8899 332.51 32.0199 334.16 29.9999L347.47 14.3899H361.08L338.14 40.9499L337.23 40.6199L322.93 56.4399V56.4399ZM348.51 68.7299L332.39 44.2199L339.43 35.8999L361.68 68.7299H348.51Z" fill="black"/>
<path d="M390.86 69.4899C386.39 69.4899 382.46 68.6599 379.1 66.9899C375.74 65.3199 373.12 63.0099 371.26 60.0399C369.4 57.0699 368.47 53.6099 368.47 49.6399V14.3799H379.6V48.7399C379.6 50.8599 380.07 52.7299 381 54.3799C381.94 56.0199 383.25 57.3099 384.94 58.2499C386.63 59.1899 388.61 59.6499 390.87 59.6499C393.13 59.6499 395.14 59.1799 396.83 58.2499C398.52 57.3199 399.83 56.0199 400.77 54.3799C401.71 52.7399 402.17 50.8599 402.17 48.7399V14.3799H413.33V49.6399C413.33 53.6099 412.39 57.0799 410.52 60.0399C408.65 63.0199 406.03 65.3299 402.66 66.9999C399.29 68.6699 395.36 69.4899 390.86 69.4899V69.4899Z" fill="black"/>
</g>
</g>
<defs>
<clipPath id="clip0_5_1060">
<rect width="510" height="125" fill="black"/>
</clipPath>
</defs>
</svg>
