<svg width="104" height="125" viewBox="0 0 104 125" fill="none" xmlns="http://www.w3.org/2000/svg">
<path d="M103.35 70.13H90.57V12.77H0V0H103.35V70.13Z" fill="#FB6E00"/>
<path d="M51.92 125C38.09 125 25.12 119.23 15.39 108.76C5.77999 98.42 0.48999 84.7 0.48999 70.13V52.21H36.83V64.98H13.27V70.13C13.27 93.34 30.61 112.22 51.92 112.22C73.23 112.22 90.57 93.34 90.57 70.13H103.34C103.34 84.7 98.05 98.42 88.44 108.76C78.71 119.23 65.74 125 51.91 125H51.92Z" fill="#FB6E00"/>
<path d="M52.12 104.31C35.64 104.31 22.22 90.0901 22.22 72.6201H34.99C34.99 83.0501 42.67 91.5401 52.11 91.5401C61.55 91.5401 69.23 83.0501 69.23 72.6201H82C82 90.1001 68.59 104.31 52.1 104.31H52.12Z" fill="#FB6E00"/>
<path d="M30.74 41.8701C35.4454 41.8701 39.26 38.0555 39.26 33.3501C39.26 28.6446 35.4454 24.8301 30.74 24.8301C26.0345 24.8301 22.22 28.6446 22.22 33.3501C22.22 38.0555 26.0345 41.8701 30.74 41.8701Z" fill="#FB6E00"/>
<path d="M78.6033 24.8308L61.5676 35.667L64.9972 41.0587L82.0328 30.2225L78.6033 24.8308Z" fill="#FB6E00"/>
</svg>
